<svg width="86" height="32" viewBox="0 0 86 32" fill="none" xmlns="http://www.w3.org/2000/svg">
<path d="M26.7477 11.542H17.8318V2.62613C22.7504 2.62613 26.7477 6.60857 26.7477 11.542Z" fill="#172FFF"/>
<path d="M17.8318 20.458V11.5421H26.7477C26.7477 16.4607 22.7504 20.458 17.8318 20.458Z" fill="#172FFF"/>
<path d="M0 11.5421H8.91592V20.458C3.9973 20.458 0 16.4607 0 11.5421Z" fill="#1968F3"/>
<path d="M17.8319 11.542H8.91602V2.62613C13.8346 2.62613 17.8319 6.60857 17.8319 11.542Z" fill="#1968F3"/>
<path d="M8.91602 29.3739V20.4579H17.8319C17.8319 25.3766 13.8346 29.3739 8.91602 29.3739Z" fill="#1CDBDB"/>
<path d="M0 20.4579H8.91592V29.3739C3.9973 29.3739 0 25.3766 0 20.4579Z" fill="#1CDBDB"/>
<path d="M8.91602 20.458V11.5421H17.8319C17.8319 16.4607 13.8346 20.458 8.91602 20.458Z" fill="#1968F3"/>
<path d="M8.91592 2.62613V11.542H0C0 6.60857 3.9973 2.62613 8.91592 2.62613Z" fill="#1968F3"/>
<path d="M17.8318 29.3739V20.4579H26.7477C26.7477 25.3766 22.7504 29.3739 17.8318 29.3739Z" fill="#1BA1E7"/>
<path d="M43.8127 25.321C42.3327 25.321 41.2093 24.9554 40.4425 24.2243C39.6936 23.4932 39.3191 22.45 39.3191 21.0948V7.45347H42.8498V20.3191C42.8498 20.8898 42.9746 21.3266 43.2243 21.6298C43.4739 21.9151 43.8395 22.0577 44.3209 22.0577C44.4993 22.0577 44.6954 22.0221 44.9094 21.9508C45.1234 21.8616 45.3463 21.7368 45.5781 21.5763L46.8085 24.2243C46.3805 24.5453 45.8991 24.8038 45.3641 25C44.847 25.214 44.3299 25.321 43.8127 25.321ZM37.1525 14.6219V11.6261H46.1933V14.6219H37.1525ZM49.2785 25V11.6261H52.8092V25H49.2785ZM51.0438 9.45955C50.5089 9.45955 50.0363 9.2634 49.6262 8.8711C49.2161 8.46097 49.011 7.97951 49.011 7.42672C49.011 6.87393 49.2161 6.40139 49.6262 6.00909C50.0363 5.59896 50.5089 5.39389 51.0438 5.39389C51.5966 5.39389 52.0692 5.59896 52.4615 6.00909C52.8716 6.40139 53.0767 6.87393 53.0767 7.42672C53.0767 7.97951 52.8716 8.46097 52.4615 8.8711C52.0692 9.2634 51.5966 9.45955 51.0438 9.45955ZM58.7397 30.6705C58.2582 30.6705 57.7232 30.5725 57.1348 30.3763C56.5642 30.198 56.056 29.984 55.6102 29.7344L56.9208 26.8723C57.224 27.0328 57.5003 27.1577 57.75 27.2468C58.0175 27.3538 58.2493 27.4073 58.4454 27.4073C58.8199 27.4073 59.1498 27.3003 59.4351 27.0863C59.7204 26.8902 59.9522 26.5959 60.1305 26.2036L61.7087 22.4857L65.9616 11.6261H69.84L63.7682 26.1502C63.3938 27.0417 63.0015 27.8263 62.5913 28.504C62.1812 29.1994 61.673 29.7344 61.0667 30.1088C60.4783 30.4833 59.7026 30.6705 58.7397 30.6705ZM60.7725 25L54.6473 11.6261H58.5257L62.9926 22.4857L64.1427 25H60.7725ZM71.4762 25V11.6261H74.7929L75.0069 14.0869V25H71.4762ZM80.3297 25V18.1526H83.8604V25H80.3297ZM80.3297 18.1526C80.3297 17.2431 80.2227 16.5388 80.0087 16.0395C79.8126 15.5402 79.5273 15.1836 79.1528 14.9696C78.7783 14.7378 78.3414 14.6219 77.8422 14.6219C76.9327 14.604 76.2284 14.8804 75.7291 15.451C75.2476 16.0217 75.0069 16.8687 75.0069 17.9921H73.83C73.83 16.5655 74.0351 15.3619 74.4452 14.3811C74.8732 13.3826 75.4616 12.6247 76.2105 12.1076C76.9773 11.5726 77.8689 11.3051 78.8853 11.3051C79.9374 11.3051 80.8379 11.5191 81.5868 11.9471C82.3358 12.3751 82.9064 13.0438 83.2987 13.9532C83.691 14.8448 83.8782 16.0038 83.8604 17.4304V18.1526H80.3297Z" fill="black"/>
</svg>
