<svg width="347" height="68" viewBox="0 0 347 68" fill="none" xmlns="http://www.w3.org/2000/svg">
<path d="M11.1796 52.4124C9.14693 52.4124 7.26827 52.0494 5.54359 51.3233C3.88051 50.5519 2.52541 49.5536 1.47829 48.3283C0.492764 47.0577 0 45.6737 0 44.1762V43.6316H7.57624V44.1762C7.57624 44.9022 7.91502 45.5375 8.59257 46.0821C9.33171 46.5812 10.1941 46.8308 11.1796 46.8308H43.3324C44.3179 46.8308 45.1495 46.5812 45.827 46.0821C46.5662 45.5375 46.9357 44.9022 46.9357 44.1762V38.1181C46.9357 37.3921 46.5662 36.7794 45.827 36.2803C45.1495 35.7357 44.3179 35.4635 43.3324 35.4635H11.1796C9.14693 35.4635 7.26827 35.1004 5.54359 34.3744C3.88051 33.6029 2.52541 32.6046 1.47829 31.3794C0.492764 30.1088 0 28.7247 0 27.2272V21.1692C0 19.6717 0.492764 18.3103 1.47829 17.0851C2.52541 15.8145 3.88051 14.8161 5.54359 14.0901C7.26827 13.3187 9.14693 12.9329 11.1796 12.9329H43.3324C45.4267 12.9329 47.3053 13.3187 48.9684 14.0901C50.6931 14.8161 52.0482 15.8145 53.0337 17.0851C54.0808 18.3103 54.6044 19.6717 54.6044 21.1692V21.7137H46.9357V21.1692C46.9357 20.4431 46.5662 19.8305 45.827 19.3313C45.1495 18.7868 44.3179 18.5145 43.3324 18.5145H11.1796C10.1941 18.5145 9.33171 18.7868 8.59257 19.3313C7.91502 19.8305 7.57624 20.4431 7.57624 21.1692V27.2272C7.57624 27.9533 7.91502 28.5886 8.59257 29.1331C9.33171 29.6323 10.1941 29.8819 11.1796 29.8819H43.3324C45.4267 29.8819 47.3053 30.2676 48.9684 31.039C50.6931 31.7651 52.0482 32.7634 53.0337 34.034C54.0808 35.2593 54.6044 36.6206 54.6044 38.1181V44.1762C54.6044 45.6737 54.0808 47.0577 53.0337 48.3283C52.0482 49.5536 50.6931 50.5519 48.9684 51.3233C47.3053 52.0494 45.4267 52.4124 43.3324 52.4124H11.1796Z" fill="#2C2C2C"/>
<path d="M73.4432 52.4124C71.4106 52.4124 69.5319 52.0494 67.8072 51.3233C66.1441 50.5519 64.7891 49.5536 63.7419 48.3283C62.7564 47.0577 62.2636 45.6737 62.2636 44.1762V21.1692C62.2636 19.6717 62.7564 18.3103 63.7419 17.0851C64.7891 15.8145 66.1441 14.8161 67.8072 14.0901C69.5319 13.3187 71.4106 12.9329 73.4432 12.9329H105.596C107.69 12.9329 109.569 13.3187 111.232 14.0901C112.957 14.8161 114.312 15.8145 115.297 17.0851C116.344 18.3103 116.868 19.6717 116.868 21.1692V35.4635H69.8399V44.1762C69.8399 44.9022 70.1786 45.5375 70.8562 46.0821C71.5953 46.5812 72.4577 46.8308 73.4432 46.8308H116.868V52.4124H73.4432ZM69.8399 29.8819H109.199V21.1692C109.199 20.4431 108.83 19.8305 108.091 19.3313C107.413 18.7868 106.582 18.5145 105.596 18.5145H73.4432C72.4577 18.5145 71.5953 18.7868 70.8562 19.3313C70.1786 19.8305 69.8399 20.4431 69.8399 21.1692V29.8819Z" fill="#2C2C2C"/>
<path d="M135.703 52.4124C133.67 52.4124 131.791 52.0494 130.067 51.3233C128.403 50.5519 127.048 49.5536 126.001 48.3283C125.016 47.0577 124.523 45.6737 124.523 44.1762V0H132.099V44.1762C132.099 44.9022 132.438 45.5375 133.116 46.0821C133.855 46.5812 134.717 46.8308 135.703 46.8308H144.757V52.4124H135.703Z" fill="#2C2C2C"/>
<path d="M163.583 52.4124C161.55 52.4124 159.672 52.0494 157.947 51.3233C156.284 50.5519 154.929 49.5536 153.882 48.3283C152.896 47.0577 152.403 45.6737 152.403 44.1762V0H159.98V44.1762C159.98 44.9022 160.318 45.5375 160.996 46.0821C161.735 46.5812 162.597 46.8308 163.583 46.8308H172.637V52.4124H163.583Z" fill="#2C2C2C"/>
<path d="M189.153 68V62.3503H222.6C223.585 62.3503 224.417 62.0781 225.094 61.5335C225.834 61.0344 226.203 60.4218 226.203 59.6957V52.4124H190.447C188.414 52.4124 186.536 52.0494 184.811 51.3233C183.148 50.5519 181.793 49.5536 180.746 48.3283C179.76 47.0577 179.267 45.6737 179.267 44.1762V21.1692C179.267 19.6717 179.76 18.3103 180.746 17.0851C181.793 15.8145 183.148 14.8161 184.811 14.0901C186.536 13.3187 188.414 12.9329 190.447 12.9329H222.6C224.694 12.9329 226.573 13.3187 228.236 14.0901C229.96 14.8161 231.316 15.8145 232.301 17.0851C233.287 18.3103 233.779 19.6717 233.779 21.1692V59.6957C233.779 61.2386 233.287 62.6226 232.301 63.8478C231.316 65.1185 229.96 66.1168 228.236 66.8428C226.573 67.6143 224.694 68 222.6 68H189.153ZM190.447 46.8308H222.6C223.585 46.8308 224.417 46.5812 225.094 46.0821C225.834 45.5375 226.203 44.9022 226.203 44.1762V21.1692C226.203 20.4431 225.834 19.8305 225.094 19.3313C224.417 18.7868 223.585 18.5145 222.6 18.5145H190.447C189.461 18.5145 188.599 18.7868 187.86 19.3313C187.182 19.8305 186.844 20.4431 186.844 21.1692V44.1762C186.844 44.9022 187.182 45.5375 187.86 46.0821C188.599 46.5812 189.461 46.8308 190.447 46.8308Z" fill="#2C2C2C"/>
<path d="M253.179 52.4124C251.146 52.4124 249.268 52.0494 247.543 51.3233C245.88 50.5519 244.525 49.5536 243.478 48.3283C242.492 47.0577 241.999 45.6737 241.999 44.1762V29.8819H288.935V21.1692C288.935 20.4431 288.566 19.8305 287.826 19.3313C287.149 18.7868 286.317 18.5145 285.332 18.5145H241.999V12.9329H285.332C287.426 12.9329 289.305 13.3187 290.968 14.0901C292.693 14.8161 294.048 15.8145 295.033 17.0851C296.08 18.3103 296.604 19.6717 296.604 21.1692V52.4124H253.179ZM253.179 46.8308H288.935V35.4635H249.576V44.1762C249.576 44.9022 249.914 45.5375 250.592 46.0821C251.331 46.5812 252.193 46.8308 253.179 46.8308Z" fill="#2C2C2C"/>
<path d="M305.7 52.4124V21.1692C305.7 19.6717 306.193 18.3103 307.179 17.0851C308.226 15.8145 309.581 14.8161 311.244 14.0901C312.968 13.3187 314.847 12.9329 316.88 12.9329H347V18.5145H316.88C315.894 18.5145 315.032 18.7868 314.293 19.3313C313.615 19.8305 313.276 20.4431 313.276 21.1692V52.4124H305.7Z" fill="#2C2C2C"/>
<path d="M347 44C347 48.4183 343.418 52 339 52C334.582 52 331 48.4183 331 44C331 39.5817 334.582 36 339 36C343.418 36 347 39.5817 347 44Z" fill="#48B820"/>
</svg>
